<svg width="44" height="44" viewBox="0 0 44 44" fill="none" xmlns="http://www.w3.org/2000/svg">
<g id="Icon - Command">
<path id="Vector" d="M35.3333 2C33.5652 2 31.8695 2.70238 30.6193 3.95262C29.369 5.20286 28.6667 6.89856 28.6667 8.66667V35.3333C28.6667 37.1014 29.369 38.7971 30.6193 40.0474C31.8695 41.2976 33.5652 42 35.3333 42C37.1014 42 38.7971 41.2976 40.0474 40.0474C41.2976 38.7971 42 37.1014 42 35.3333C42 33.5652 41.2976 31.8695 40.0474 30.6193C38.7971 29.369 37.1014 28.6667 35.3333 28.6667H8.66667C6.89856 28.6667 5.20286 29.369 3.95262 30.6193C2.70238 31.8695 2 33.5652 2 35.3333C2 37.1014 2.70238 38.7971 3.95262 40.0474C5.20286 41.2976 6.89856 42 8.66667 42C10.4348 42 12.1305 41.2976 13.3807 40.0474C14.631 38.7971 15.3333 37.1014 15.3333 35.3333V8.66667C15.3333 6.89856 14.631 5.20286 13.3807 3.95262C12.1305 2.70238 10.4348 2 8.66667 2C6.89856 2 5.20286 2.70238 3.95262 3.95262C2.70238 5.20286 2 6.89856 2 8.66667C2 10.4348 2.70238 12.1305 3.95262 13.3807C5.20286 14.631 6.89856 15.3333 8.66667 15.3333H35.3333C37.1014 15.3333 38.7971 14.631 40.0474 13.3807C41.2976 12.1305 42 10.4348 42 8.66667C42 6.89856 41.2976 5.20286 40.0474 3.95262C38.7971 2.70238 37.1014 2 35.3333 2Z" stroke="white" stroke-width="4" stroke-linecap="round" stroke-linejoin="round"/>
</g>
</svg>
