<svg width="130" height="20" viewBox="0 0 130 20" fill="none" xmlns="http://www.w3.org/2000/svg">
<path d="M17.3411 13.066C17.2078 15.1935 16.3694 16.8811 14.8257 18.1287C13.2932 19.3762 11.272 20 8.76217 20C6.06356 20 3.93687 19.1757 2.38211 17.5272C0.838459 15.8674 0.0444217 13.584 0 10.6767V9.57393C0 6.66667 0.782932 4.34419 2.3488 2.60652C3.92576 0.868839 6.05245 0 8.72886 0C11.2387 0 13.2488 0.629351 14.7591 1.88805C16.2694 3.14676 17.1357 4.88443 17.3578 7.10109H12.5436C12.4325 4.96241 11.1609 3.89307 8.72886 3.89307C6.19682 3.89307 4.89194 5.66973 4.8142 9.22306V10.4595C4.8142 12.4534 5.1196 13.8959 5.73039 14.787C6.3523 15.6781 7.36289 16.1236 8.76217 16.1236C9.97266 16.1236 10.8833 15.8786 11.4941 15.3885C12.116 14.8984 12.4547 14.1242 12.5103 13.066H17.3411Z" fill="white"/>
<path d="M31.8836 16.0234H24.3708L23.0049 19.7327H18.174L25.8534 0.267335H30.3844L38.1304 19.7327H33.2663L31.8836 16.0234ZM25.6702 12.4812H30.551L28.1023 5.89808L25.6702 12.4812Z" fill="white"/>
<path d="M44.5938 13.3333V19.7327H39.7629V0.267335H48.042C49.619 0.267335 51.0183 0.551378 52.2399 1.11947C53.4615 1.67641 54.3999 2.47285 55.0551 3.50877C55.7214 4.54469 56.0546 5.71429 56.0546 7.01754C56.0546 8.94458 55.3272 10.4818 53.8724 11.6291C52.4176 12.7652 50.4464 13.3333 47.9587 13.3333H44.5938ZM44.5938 9.44027H48.042C49.0637 9.44027 49.8522 9.22863 50.4075 8.80535C50.9739 8.38207 51.257 7.79727 51.257 7.05096C51.257 6.19326 50.9739 5.50265 50.4075 4.97911C49.8522 4.45558 49.0804 4.18825 48.092 4.17711H44.5938V9.44027Z" fill="white"/>
<path d="M75.0115 4.17711H68.7148V19.7327H63.8839V4.17711H57.7037V0.267335H75.0115V4.17711Z" fill="white"/>
<path d="M93.4521 0.267335V12.8655C93.4521 15.0821 92.7358 16.8254 91.3032 18.0952C89.8706 19.3651 87.8772 20 85.3229 20C82.7798 20 80.7808 19.3651 79.326 18.0952C77.8712 16.8254 77.1438 15.0877 77.1438 12.8822V0.267335H81.9746V13.1161C82.0413 15.1211 83.1574 16.1236 85.3229 16.1236C86.4001 16.1236 87.2164 15.873 87.7717 15.3718C88.338 14.8705 88.6212 14.0462 88.6212 12.8989V0.267335H93.4521Z" fill="white"/>
<path d="M104.546 13.0159H101.531V19.7327H96.7004V0.267335H104.796C107.262 0.267335 109.183 0.779727 110.56 1.80451C111.937 2.81816 112.626 4.25508 112.626 6.11529C112.626 7.49652 112.337 8.63826 111.759 9.54052C111.193 10.4316 110.266 11.1612 108.977 11.7293L113.375 19.5322V19.7327H108.178L104.546 13.0159ZM101.531 9.12281H104.796C106.806 9.12281 107.811 8.29295 107.811 6.63325C107.811 4.99582 106.762 4.17711 104.663 4.17711H101.531V9.12281Z" fill="white"/>
<path d="M128.567 11.6291H120.555V15.8563H129.983V19.7327H115.724V0.267335H130V4.17711H120.555V7.73601H128.567V11.6291Z" fill="white"/>
</svg>
